<svg width="100" height="83" viewBox="0 0 100 83" fill="none" xmlns="http://www.w3.org/2000/svg">
<path d="M53.254 35.4787L9.85875 0.730447C7.75325 -0.33881 5.24024 -0.22293 3.23401 1.00435C1.21732 2.22635 0 4.407 0 6.74567V76.2632C0 78.5966 1.21732 80.7719 3.23401 81.9992C4.32071 82.6629 5.55371 83 6.80238 83C7.85252 83 8.89743 82.7577 9.86398 82.2731L53.2592 47.5144C55.349 45.5339 57 44.0485 57 41.4939C57 38.9393 55.5946 37.5645 53.254 35.4787Z" fill="#030104"/>
<path d="M96.1936 35.4787L52.037 0.730447C49.8946 -0.33881 47.3322 -0.22293 45.2907 1.00435C43.2387 2.22635 42 4.407 42 6.74567V76.2632C42 78.5966 43.2387 80.7719 45.2907 81.9992C46.3965 82.6629 47.6511 83 48.9217 83C49.9903 83 51.0535 82.7577 52.037 82.2731L96.1936 47.5144C98.3201 45.5339 100 44.0485 100 41.4939C100 38.9393 98.5753 37.5645 96.1936 35.4787Z" fill="#030104"/>
</svg>
