<svg width="100" height="83" viewBox="0 0 100 83" fill="none" xmlns="http://www.w3.org/2000/svg">
<path d="M46.746 47.5213L90.1412 82.2696C92.2467 83.3388 94.7598 83.2229 96.766 81.9957C98.7827 80.7736 100 78.593 100 76.2543L100 6.73684C100 4.40343 98.7827 2.22806 96.766 1.00078C95.6793 0.337104 94.4463 -4.22057e-06 93.1976 -4.32973e-06C92.1475 -4.42154e-06 91.1026 0.242293 90.136 0.726882L46.7408 35.4856C44.651 37.4661 43 38.9515 43 41.5061C43 44.0607 44.4054 45.4355 46.746 47.5213Z" fill="#030104"/>
<path d="M3.80642 47.5213L47.963 82.2696C50.1054 83.3388 52.6678 83.2229 54.7093 81.9957C56.7613 80.7736 58 78.593 58 76.2543L58 6.73684C58 4.40343 56.7613 2.22806 54.7093 1.00078C53.6035 0.337104 52.3489 -4.22909e-06 51.0783 -4.34016e-06C50.0097 -4.43358e-06 48.9465 0.242293 47.963 0.726882L3.80642 35.4856C1.67993 37.4661 4.95291e-06 38.9515 4.72957e-06 41.5061C4.50624e-06 44.0607 1.42475 45.4355 3.80642 47.5213Z" fill="#030104"/>
</svg>
