<svg width="71" height="83" viewBox="0 0 71 83" fill="none" xmlns="http://www.w3.org/2000/svg">
<path d="M19.631 0H5.61243C2.51116 0 0 2.51116 0 5.61243V77.3938C0 80.4888 2.51116 83 5.61243 83H19.631C22.7322 83 25.2434 80.4951 25.2434 77.3938V5.61243C25.2497 2.51116 22.7385 0 19.631 0Z" fill="#030104"/>
<path d="M64.4902 0H50.4653C47.3703 0 44.8529 2.51116 44.8529 5.61243V77.3938C44.8529 80.4888 47.3641 83 50.4653 83H64.4902C67.5914 83 70.1026 80.4951 70.1026 77.3938V5.61243C70.0963 2.51116 67.5914 0 64.4902 0Z" fill="#030104"/>
</svg>
